# xmcd
#
# Track frame offsets:
#	150
#	14718
#	27216
#	41505
#	56912
#	69299
#	84314
#	99643
#	114063
#	127156
#	139345
#	152956
#	166114
#	179195
#	190948
#	202271
#	214541
#	225775
#	237380
#	250556
#	264230
#	279260
#	294501
#	308498
#	322095
#
# Disc length: 4428 seconds
#
# Revision: 1
# Processed by: cddbd v1.5.2PL0 Copyright (c) Steve Scherf et al.
# Submitted via: audiograbber 1.83.01
#
DISCID=62114a19
DTITLE=Various Artist - Blues, Blues Christmas (Volume 1 - 1925-1955 [CD2])
DYEAR=2009
DGENRE=Holiday
TTITLE0=Bo Carter - Santa Claus
TTITLE1=Black Ace - Christmas Time
TTITLE2=Mary Harris - Happy New Year Blues
TTITLE3=Charlie Jordan - Christmas Christmas Blues
TTITLE4=Johnny Otis Orchestra - Happy New Year, Baby
TTITLE5=Little Esther and Mel Walker with Johnny Otis - Faraway Christmas Blues
TTITLE6=Sonny Boy Williamson I - Christmas Morning Blues
TTITLE7=Leroy Carr - Christmas in Jail
TTITLE8=Kansas City Kitty - Chirstmas Mornin' Blues
TTITLE9=Rev. J.M. Gates - Did You Spend Christmas Day In Jail?
TTITLE10=Rev. J.M. Gates - Death Might Be Your Santa Claus
TTITLE11=Blind Lemon Jefferson - Happy New Year Blues
TTITLE12=Smokey Hogg - New Year's Eve Blues
TTITLE13=Sons of Heaven - When Was Jesus Born
TTITLE14=J.B. Summers with Doc Bagby's Orchestra - I Want A Present For Christm
TTITLE14=as
TTITLE15=Sonny Parker with Lionel Hampton Orchestra - Boogie Woogie Santa Claus
TTITLE16=Roy Milton Solid Senders - New Year's Resolution Blues
TTITLE17=Sonny Boy Williamson II, His Harmonica and Houserockers - Sonny Boy's Ch
TTITLE17=ristmas Blues
TTITLE18=Roosevelt Sykes - Let Me Hang My Stocking In Your Christmas Tree
TTITLE19=Elzadie Robinson - The Santa Claus Crave
TTITLE20=Walter Davis - Santa Claus
TTITLE21=Victoria Spivey - Christmas Morning Blues
TTITLE22=Boll Weavil - Chirstmas Time Blues
TTITLE23=Floyd Dixon - Empty Stocking Blues
TTITLE24=Mabel Scott with Les Welch and His Orchestra - Boogie Woogie Santa Cla
TTITLE24=us
EXTD=
EXTT0=
EXTT1=
EXTT2=
EXTT3=
EXTT4=
EXTT5=
EXTT6=
EXTT7=
EXTT8=
EXTT9=
EXTT10=
EXTT11=
EXTT12=
EXTT13=
EXTT14=
EXTT15=
EXTT16=
EXTT17=
EXTT18=
EXTT19=
EXTT20=
EXTT21=
EXTT22=
EXTT23=
EXTT24=
PLAYORDER=
